<?xml version="1.0" encoding="UTF-8" standalone="no"?>
<svg
   version="1.0"
   id="glyph_k"
   x="0px"
   y="0px"
   width="64.160156000000001px"
   height="121px"
   sodipodi:docname="k2.svg"
   inkscape:version="1.4.4 (dcaf3e7d9e, 2026-05-05)"
   xmlns:inkscape="http://www.inkscape.org/namespaces/inkscape"
   xmlns:sodipodi="http://sodipodi.sourceforge.net/DTD/sodipodi-0.dtd"
   xmlns="http://www.w3.org/2000/svg"
   xmlns:svg="http://www.w3.org/2000/svg">
  <defs
     id="defs1" />
  <sodipodi:namedview
     id="namedview1"
     pagecolor="#ffffff"
     bordercolor="#000000"
     borderopacity="0.25"
     inkscape:showpageshadow="2"
     inkscape:pageopacity="0.0"
     inkscape:pagecheckerboard="0"
     inkscape:deskcolor="#d1d1d1"
     inkscape:zoom="11.966942"
     inkscape:cx="32.088398"
     inkscape:cy="60.5"
     inkscape:window-width="3072"
     inkscape:window-height="1659"
     inkscape:window-x="0"
     inkscape:window-y="0"
     inkscape:window-maximized="1"
     inkscape:current-layer="glyph_k" />
  <g
     id="k"
     transform="matrix(0.84156117,0,0,0.84156117,1.3383749,14.420409)">
    <path
       style="fill:currentColor;stroke-width:0px"
       d="m 8.447266,21.923828 c 5.249023,0 15.74707,0 20.996093,0 0,9.313965 0,27.941894 0,37.255859 C 34.582519,55.456543 44.86084,48.010254 50,44.287109 q 2.929688,-2.197265 4.6875,-4.248047 1.757812,-2.050781 2.978516,-2.050781 2.197265,0 2.197265,1.806641 0,1.367187 -1.660156,2.734375 c -4.150391,3.20638 -9.338379,7.214355 -12.451172,9.61914 4.492188,9.716797 13.476563,29.150391 17.96875,38.867188 -5.456543,0 -16.369629,0 -21.826172,0 -3.112793,-6.884766 -9.338379,-20.654296 -12.451172,-27.539062 0,6.884766 0,20.654296 0,27.539062 -5.249023,0 -15.74707,0 -20.996093,0 0,-17.272949 0,-51.818848 0,-69.091797 z"
       id="path_k_0" />
  </g>
</svg>
