<?xml version="1.0" encoding="utf-8"?>
<!DOCTYPE svg PUBLIC "-//W3C//DTD SVG 1.0//EN" "http://www.w3.org/TR/2001/REC-SVG-20010904/DTD/svg10.dtd">
<svg version="1.0"
	id="glyph_k"
	xmlns="http://www.w3.org/2000/svg"
	xmlns:xlink="http://www.w3.org/1999/xlink"
	x="0px"
	y="0px"
	width="50px"
	height="128px">
<g id="k">
<path style="fill:currentColor;stroke-width:0px" d="M0.900000000000000 101.500000000000000 C3.925000000000011 83.125000000000000 9.975000000000023 46.375000000000000 13.000000000000000 28.000000000000000 C14.524999999999977 28.000000000000000 17.574999999999989 28.000000000000000 19.100000000000023 28.000000000000000 C17.149999999999977 39.775000000000006 13.250000000000000 63.324999999999989 11.300000000000011 75.099999999999994 Q13.500000000000000 73.800000000000011 15.550000000000011 72.449999999999989 Q17.600000000000023 71.099999999999994 19.600000000000023 69.800000000000011 Q21.699999999999989 68.400000000000006 23.699999999999989 67.000000000000000 Q25.699999999999989 65.599999999999994 27.699999999999989 64.099999999999994 Q29.699999999999989 62.599999999999994 31.550000000000011 61.000000000000000 Q33.399999999999977 59.400000000000006 35.100000000000023 57.699999999999989 Q36.899999999999977 55.900000000000006 38.350000000000023 53.849999999999994 Q39.800000000000011 51.800000000000011 40.199999999999989 49.500000000000000 C42.233333333333348 49.500000000000000 44.774999999999977 49.500000000000000 46.300000000000011 49.500000000000000 Q45.899999999999977 52.000000000000000 44.449999999999989 54.250000000000000 Q43.000000000000000 56.500000000000000 41.199999999999989 58.500000000000000 Q39.500000000000000 60.500000000000000 37.500000000000000 62.250000000000000 Q35.500000000000000 64.000000000000000 33.399999999999977 65.699999999999989 Q31.300000000000011 67.400000000000006 29.199999999999989 69.000000000000000 Q27.100000000000023 70.599999999999994 24.899999999999977 72.099999999999994 Q26.199999999999989 73.699999999999989 27.350000000000023 75.349999999999994 Q28.500000000000000 77.000000000000000 29.699999999999989 78.699999999999989 Q30.899999999999977 80.400000000000006 31.949999999999989 82.099999999999994 Q33.000000000000000 83.800000000000011 34.000000000000000 85.599999999999994 Q35.000000000000000 87.400000000000006 35.850000000000023 89.250000000000000 Q36.699999999999989 91.099999999999994 37.300000000000011 93.099999999999994 Q38.000000000000000 95.099999999999994 38.399999999999977 97.199999999999989 Q38.800000000000011 99.300000000000011 38.500000000000000 101.500000000000000 C36.466666666666697 101.500000000000000 33.925000000000011 101.500000000000000 32.399999999999977 101.500000000000000 Q32.699999999999989 99.500000000000000 32.350000000000023 97.650000000000006 Q32.000000000000000 95.800000000000011 31.399999999999977 94.000000000000000 Q30.800000000000011 92.199999999999989 30.050000000000011 90.550000000000011 Q29.300000000000011 88.900000000000006 28.399999999999977 87.300000000000011 Q27.600000000000023 85.699999999999989 26.600000000000023 84.150000000000006 Q25.600000000000023 82.599999999999994 24.600000000000023 81.099999999999994 Q23.600000000000023 79.599999999999994 22.550000000000011 78.150000000000006 Q21.500000000000000 76.699999999999989 20.399999999999977 75.199999999999989 Q17.800000000000011 76.900000000000006 15.300000000000011 78.599999999999994 Q12.800000000000011 80.300000000000011 10.199999999999989 82.000000000000000 C9.133333333333326 88.500000000000000 7.800000000000011 96.625000000000000 7.000000000000000 101.500000000000000 C5.475000000000023 101.500000000000000 2.425000000000011 101.500000000000000 0.899999999999977 101.500000000000000 z" id="path_k_0" />
</g>
</svg>
