<?xml version="1.0" encoding="UTF-8" standalone="no"?>
<svg
   version="1.0"
   id="glyph_O"
   x="0px"
   y="0px"
   width="53.417968999999999px"
   height="141px"
   sodipodi:docname="o2.svg"
   inkscape:version="1.4.4 (dcaf3e7d9e, 2026-05-05)"
   xmlns:inkscape="http://www.inkscape.org/namespaces/inkscape"
   xmlns:sodipodi="http://sodipodi.sourceforge.net/DTD/sodipodi-0.dtd"
   xmlns="http://www.w3.org/2000/svg"
   xmlns:svg="http://www.w3.org/2000/svg">
  <defs
     id="defs1" />
  <sodipodi:namedview
     id="namedview1"
     pagecolor="#ffffff"
     bordercolor="#000000"
     borderopacity="0.25"
     inkscape:showpageshadow="2"
     inkscape:pageopacity="0.0"
     inkscape:pagecheckerboard="0"
     inkscape:deskcolor="#d1d1d1"
     inkscape:zoom="10.269504"
     inkscape:cx="26.680939"
     inkscape:cy="70.5"
     inkscape:window-width="3072"
     inkscape:window-height="1659"
     inkscape:window-x="0"
     inkscape:window-y="0"
     inkscape:window-maximized="1"
     inkscape:current-layer="glyph_O" />
  <g
     id="O"
     transform="matrix(0.86412315,0,0,0.86412315,0.74441694,24.105079)">
    <path
       style="fill:currentColor;stroke-width:0px"
       d="m 53.662109,61.376954 q -0.146484,1.904296 -0.585937,3.637694 -0.439453,1.733399 -1.171875,3.442384 -0.683594,1.708984 -1.708985,3.540039 -1.02539,1.831055 -2.34375,3.930664 -0.09766,0.244141 -0.146484,0.561524 -0.04883,0.317382 -0.195312,0.561523 -0.341797,0.390625 -0.927735,0.732422 -0.585937,0.341796 -0.927734,0.732422 -0.195313,0.24414 -0.195313,0.537109 0,0.292969 -0.146484,0.537109 -0.244141,0.341797 -0.78125,0.708008 -0.537109,0.366211 -1.074219,0.756836 -0.195312,0.195312 -0.219726,0.488281 -0.02441,0.292969 -0.268555,0.292969 -0.09766,0 -0.244141,-0.02441 -0.146484,-0.02441 -0.24414,-0.02441 -0.292969,0 -0.463868,0.463867 -0.170898,0.463867 -0.36621,0.65918 -0.244141,0.146484 -0.561524,0.146484 -0.317383,0 -0.561523,0.195313 -0.78125,0.585937 -1.367188,1.293945 -0.585937,0.708008 -1.513672,1.245117 -0.24414,0.09766 -0.561523,0.146484 -0.317383,0.04883 -0.512695,0.244141 -0.244141,0.09766 -0.268555,0.415039 -0.02441,0.317383 -0.268555,0.317383 -0.09766,0 -0.24414,-0.02441 -0.146485,-0.02441 -0.244141,-0.02441 -0.244141,0 -0.317383,0.390625 -0.07324,0.390625 -0.317383,0.390625 -0.09766,0 -0.219726,-0.02441 -0.122071,-0.02441 -0.219727,-0.02441 -0.292968,0 -0.463867,0.488281 -0.170898,0.488281 -0.366211,0.634766 -0.488281,0.341796 -1.196289,0.317382 -0.708008,-0.02441 -1.342773,0.41504 -0.244141,0.09766 -0.366212,0.317383 -0.12207,0.219726 -0.415038,0.36621 -0.927735,0.53711 -2.148438,0.903321 -1.220703,0.36621 -2.783203,0.36621 -0.927734,0 -1.953125,-0.146484 Q 22.998047,90.820313 22.412109,90.649415 21.826172,90.478516 21.142578,90.332032 20.507812,90.136719 19.775391,89.892578 19.042969,89.648438 18.310547,89.0625 17.626953,88.525391 17.065429,87.91504 16.503906,87.304688 15.771484,86.865235 15.380859,86.669922 14.96582,86.547852 14.550781,86.425782 14.306641,86.181641 14.0625,85.9375 14.111328,85.644531 14.160156,85.351563 13.916016,85.058594 13.818359,84.91211 13.549804,84.863282 13.28125,84.814454 13.183594,84.667969 12.939453,84.326172 12.841797,83.959961 12.744141,83.59375 12.5,83.251954 11.914062,82.519532 11.254883,82.055665 10.595703,81.591797 10.302734,81.054688 10.058594,80.615235 9.790039,79.809571 9.521484,79.003907 9.228516,78.076172 8.984375,77.09961 8.6914065,76.147461 8.398438,75.195313 8.105469,74.511719 7.275391,72.705079 7.275391,69.53125 q 0,-1.269531 0.097656,-2.734375 0.097656,-1.464843 0.292969,-2.929687 0.24414,-1.464844 0.512695,-2.856446 0.268555,-1.391601 0.65918,-2.563476 0.292968,-0.976562 0.3417965,-1.977539 0.048829,-1.000977 0.3906245,-1.68457 0.048829,-0.146485 0.3173835,-0.317383 0.2685545,-0.170898 0.4150385,-0.415039 0.146485,-0.341797 0.146485,-0.561524 0,-0.219726 0.195312,-0.512695 0.09766,-0.195312 0.366211,-0.390624 0.268555,-0.195313 0.366211,-0.341798 0.146485,-0.24414 0.170899,-0.537109 0.02441,-0.292969 0.219726,-0.537109 0.244141,-0.390626 0.708008,-0.732422 0.463867,-0.341797 0.708008,-0.732422 0.195312,-0.244141 0.195312,-0.561523 0,-0.317383 0.195313,-0.561524 0.09766,-0.146485 0.36621,-0.170899 0.268555,-0.02441 0.366212,-0.170898 0.195312,-0.244141 0.195312,-0.537109 0,-0.292969 0.195313,-0.53711 0.292968,-0.439453 0.952148,-1.000977 0.65918,-0.561523 1.196289,-1.196288 0.976563,-1.074219 1.977539,-2.050782 1.000977,-0.976562 2.075196,-1.855468 1.123046,-0.927735 2.368163,-1.831055 1.245118,-0.90332 2.709961,-1.928711 0.976563,-0.78125 2.001954,-1.416016 0.830078,-0.537109 1.855468,-1.074218 1.025391,-0.53711 1.953125,-0.78125 0.04883,0 0.09766,-0.170899 0.04883,-0.170898 0.292968,-0.170898 0.439454,-0.09766 1.269532,-0.170899 0.830078,-0.07324 1.708984,-0.07324 1.367188,0 2.490234,0.244141 0.927735,0.24414 1.928712,0.390624 1.000976,0.146485 2.026366,0.439454 1.074219,0.244141 2.172852,0.708008 1.098633,0.463867 2.22168,1.342773 0.24414,0.195313 0.415039,0.610352 0.170898,0.415039 0.708008,0.463867 0.537109,0.04883 0.90332,0.488281 0.366211,0.439453 0.610351,1.123047 0.292969,0.634766 0.512696,1.391602 0.219726,0.756835 0.512695,1.391601 0.09766,0.146484 0.903321,1.660156 0.805664,1.513672 1.635742,3.808594 0.146484,0.390625 0.195312,0.927734 0.04883,0.53711 0.195313,0.878907 0.09766,0.292969 0.36621,0.512696 0.268555,0.219726 0.366211,0.610351 0.244141,1.220703 0.390625,3.027343 0.146485,1.806641 0.146485,3.808594 0,1.025391 -0.04883,2.075195 -0.04883,1.049805 -0.146485,2.026368 z m -5.810547,-5.46875 Q 47.705078,54.6875 47.119141,53.442383 46.533203,52.197266 46.386719,51.513672 46.09375,50.341797 45.556641,49.438477 q -0.53711,-0.90332 -1.123047,-1.635742 -0.53711,-0.732422 -0.952149,-1.293945 -0.415039,-0.561524 -0.415039,-1.049805 0,-0.146485 0.02441,-0.341797 0.02441,-0.195312 0.02441,-0.341797 0,-0.195312 -0.585938,-0.830078 -0.585937,-0.634766 -1.26953,-1.171875 Q 40.917969,42.529297 40.380859,42.456055 39.84375,42.382813 39.453125,42.041016 39.0625,41.748047 38.818359,41.259766 38.574219,40.771485 38.330078,40.576172 37.402344,39.84375 35.742187,39.453125 34.082031,39.0625 32.519531,39.0625 q -0.537109,0 -1.171875,0.07324 -0.634765,0.07324 -0.634765,0.366212 -1.757813,0.24414 -2.954102,0.537109 -1.196289,0.292969 -2.075195,0.683594 -0.830078,0.341797 -1.44043,0.78125 -0.610352,0.439453 -1.196289,0.927734 -0.244141,0.146485 -0.366211,0.341797 -0.12207,0.195312 -0.366211,0.341797 -0.537109,0.390625 -1.000977,0.585937 -0.463867,0.195313 -0.805664,0.53711 -0.24414,0.24414 -0.219726,0.537109 0.02441,0.292969 -0.12207,0.537109 -0.195313,0.244141 -0.585938,0.366211 -0.390625,0.122071 -0.537109,0.366211 -0.146485,0.244141 -0.219727,0.585938 -0.07324,0.341797 -0.170898,0.537109 -0.732422,1.611328 -1.44043,2.856446 -0.708008,1.245117 -1.098633,2.221679 -0.292969,0.732422 -0.488281,1.953125 -0.195312,1.220703 -0.341797,2.587891 -0.09766,1.318359 -0.170899,2.612305 -0.07324,1.293945 -0.12207,2.172851 0,0.292969 0.02441,0.415039 0.02441,0.122071 0.02441,0.366211 c 0,0.146484 0,0.32959 0,0.439453 q 0.04883,0.53711 0.09766,0.903321 0.04883,0.36621 0.09766,0.659179 0.04883,0.244141 0.09766,0.488281 0.04883,0.244141 0.04883,0.585938 0,0.09766 -0.04883,0.366211 -0.04883,0.268555 -0.292969,0.708008 0.04883,0.537109 0.341797,1.074218 0.292969,0.53711 0.390625,1.074219 0.09766,0.53711 0.09766,0.952149 0,0.415039 0,0.805664 c 0,0.292969 0,0.659179 0,0.878906 q 0,0.732422 0.170898,1.074219 0.170899,0.341797 0.415039,1.02539 0.195313,0.53711 0.244141,1.074219 0.04883,0.537109 0.146484,0.78125 0.146485,0.341797 0.512696,0.488281 0.36621,0.146485 0.610351,0.585938 0.244141,0.390625 0.341797,0.927734 0.09766,0.53711 0.341797,0.878906 0.09766,0.146485 0.36621,0.195313 0.268555,0.04883 0.366212,0.195313 0.195312,0.24414 0.219726,0.537109 0.02441,0.292969 0.170899,0.537109 0.09766,0.146485 0.36621,0.195313 0.268555,0.04883 0.366211,0.195312 0.195313,0.146485 0.170899,0.512696 -0.02441,0.366211 0.170898,0.561523 0.439453,0.439453 1.391602,0.756836 0.952148,0.317383 1.538086,0.708008 0.244141,0.146484 0.366211,0.537109 0.12207,0.390625 0.366211,0.537109 0.24414,0.195313 0.561523,0.244141 0.317383,0.04883 0.561524,0.146485 1.220703,0.78125 2.050781,1.049804 0.830078,0.268555 1.757812,0.268555 0.878907,0 2.050782,-0.292969 1.171875,-0.292969 2.246093,-0.732422 1.123047,-0.439453 1.97754,-0.90332 0.854492,-0.463867 1.196288,-0.854492 0,-0.04883 0.09766,-0.04883 0.09766,0 0.268555,0.04883 0.170898,0.04883 0.268554,0.04883 0.244141,0 0.683594,-0.488281 0.439453,-0.488282 0.878906,-1.123047 0.439453,-0.634766 0.854492,-1.245117 0.415039,-0.610352 0.561524,-0.854493 0.439453,-0.634765 1.000977,-1.342773 0.561523,-0.708008 1.098632,-1.391602 0.537109,-0.732421 0.976563,-1.416015 0.439453,-0.683594 0.585937,-1.31836 0.244141,-0.927734 0.488281,-1.245117 0.244141,-0.317383 0.634766,-0.952148 0.292969,-0.53711 0.488281,-0.976563 0.195313,-0.439453 0.341797,-0.878906 0.146484,-0.439453 0.292968,-0.952148 0.146485,-0.512696 0.29297,-1.19629 0.146484,-0.585937 0.146484,-1.171875 0,-0.585937 0,-1.171875 0.04883,-0.585937 0.170899,-1.098633 0.12207,-0.512695 0.463867,-0.952148 0.24414,-0.976562 0.341796,-2.221679 0.09766,-1.245118 0.09766,-2.465821 0,-0.585937 0,-1.14746 0,-0.561524 -0.09766,-1.049805 z"
       id="path_O_0" />
  </g>
</svg>
