<?xml version="1.0" encoding="UTF-8" standalone="no"?>
<svg
   version="1.0"
   id="glyph_0"
   x="0px"
   y="0px"
   width="53.320312000000001px"
   height="121px"
   sodipodi:docname="o3.svg"
   inkscape:version="1.4.4 (dcaf3e7d9e, 2026-05-05)"
   xmlns:inkscape="http://www.inkscape.org/namespaces/inkscape"
   xmlns:sodipodi="http://sodipodi.sourceforge.net/DTD/sodipodi-0.dtd"
   xmlns="http://www.w3.org/2000/svg"
   xmlns:svg="http://www.w3.org/2000/svg">
  <defs
     id="defs1" />
  <sodipodi:namedview
     id="namedview1"
     pagecolor="#ffffff"
     bordercolor="#000000"
     borderopacity="0.25"
     inkscape:showpageshadow="2"
     inkscape:pageopacity="0.0"
     inkscape:pagecheckerboard="0"
     inkscape:deskcolor="#d1d1d1"
     inkscape:zoom="11.966942"
     inkscape:cx="26.656768"
     inkscape:cy="60.5"
     inkscape:window-width="1842"
     inkscape:window-height="1413"
     inkscape:window-x="26"
     inkscape:window-y="23"
     inkscape:window-maximized="0"
     inkscape:current-layer="glyph_0" />
  <g
     id="0"
     transform="matrix(0.77458789,0,0,0.77458789,-0.64709241,19.425661)">
    <path
       style="fill:currentColor;stroke-width:0px"
       d="m 50.976562,61.816406 q -0.78125,-0.195312 -1.074218,0.292969 0.390625,0.976562 0.830078,1.904297 0.439453,0.927734 0.732422,1.80664 -0.488282,1.367188 -1.171875,2.685547 -0.683594,1.318359 -1.757813,2.294922 -0.292968,0.488281 -0.732422,1.123047 -0.439453,0.634766 -0.634765,1.220703 -0.390625,1.464844 -0.976563,2.294922 -0.585937,0.830078 -1.074218,1.513672 -0.390626,0.488281 -1.171876,1.80664 -0.78125,1.31836 -1.660156,2.88086 -0.78125,1.5625 -1.513672,2.978515 -0.732422,1.416016 -1.02539,2.09961 -0.683594,0.390625 -0.976563,0.976562 -0.292969,0.585938 -0.683593,1.269532 -0.195313,1.367187 -1.074219,2.148437 -0.878907,0.78125 -1.367188,2.050781 0.09766,0.585938 0.244141,1.123047 0.146484,0.537109 0.24414,1.123047 -0.78125,0.292969 -1.123046,0.634765 -0.341797,0.341797 -1.123047,0.244141 -0.878907,1.171875 -1.416016,2.539063 -0.537109,1.367185 -1.904297,2.148435 -0.488281,-0.0977 -0.732422,-0.34179 -0.24414,-0.24414 -0.634765,-0.43946 -0.585938,0.19532 -1.220703,0.3418 -0.634766,0.14648 -1.31836,0.14648 -0.390625,0 -0.683594,-0.39062 -0.292968,-0.390626 -0.488281,-0.585939 -0.683593,-0.292969 -0.976562,-0.488281 -0.292969,-0.195313 -0.683594,-0.390625 -0.195313,-0.585938 -0.78125,-1.074219 -1.074219,-0.09766 -1.5625,-0.78125 -0.488281,-0.683594 -0.683594,-1.5625 Q 21.289062,94.53125 21.386719,93.75 20.605469,92.089844 19.580079,90.722656 18.554688,89.355468 17.480469,87.890625 16.796875,87.011718 16.210937,86.083984 15.625,85.15625 14.941406,84.082031 14.453125,83.59375 14.111328,83.251953 13.769531,82.910156 13.476562,82.421875 11.621094,79.6875 10.009766,76.757812 8.398438,73.828125 6.152344,71.289062 5.371094,70.3125 4.638672,69.433593 3.90625,68.554687 3.125,67.578125 2.832031,67.480468 2.5390625,67.333984 2.246094,67.1875 1.855469,66.992187 1.5625,66.503906 1.3183595,66.064453 1.074219,65.625 0.976562,65.039062 1.269531,64.550781 1.5625,63.916015 1.855469,63.28125 2.148438,62.695312 2.34375,62.207031 2.5390625,61.71875 2.734375,61.230468 2.929688,60.742187 3.515625,59.375 4.1992185,58.105468 4.882812,56.835937 5.664062,55.664062 6.835938,54.003906 7.8613285,52.34375 8.886719,50.683594 10.058594,49.121094 q 0.195312,-0.878907 0.878906,-1.660157 0.683594,-0.78125 0.976562,-1.660156 0.976563,-1.269531 1.757813,-2.636719 0.78125,-1.367187 1.5625,-2.734375 0.585937,-0.585937 0.927734,-1.318359 0.341797,-0.732422 0.927735,-1.31836 0.292968,-0.78125 0.732422,-1.367187 0.439453,-0.585937 0.634765,-1.464844 0.585938,-0.585937 1.171875,-1.464844 0.585938,-0.878906 1.171875,-1.855468 0.585938,-0.976563 1.074219,-1.904297 0.488281,-0.927734 0.878906,-1.611328 0.78125,-0.292969 1.123047,-1.025391 Q 24.21875,26.367187 25,25.976562 q 0.09766,-0.390625 0.292969,-0.634765 0.195312,-0.244141 0.292969,-0.634766 1.171874,0.390625 2.050781,0.390625 0.390625,0.195312 0.537109,0.537109 0.146484,0.341797 0.634766,0.439453 0.488281,-0.195312 0.634765,-0.634765 0.146485,-0.439453 0.53711,-0.830078 0.488281,0 0.830078,0.24414 0.341797,0.244141 0.830078,0.439453 0.78125,1.074219 1.416016,2.197266 0.634765,1.123047 1.220703,2.197266 0.292968,0.390625 0.488281,0.878906 0.195313,0.488281 0.390625,0.878906 0.78125,1.074219 1.513672,2.197266 0.732422,1.123047 1.416016,2.197266 1.074218,1.367187 2.050781,2.880859 0.976562,1.513672 1.855469,3.076172 1.171874,2.148437 2.148437,4.052734 0.976563,1.904297 2.34375,4.150391 0.585937,0.976562 1.269531,1.904297 0.683594,0.927734 1.367188,1.80664 0.683594,0.976563 1.220703,1.953125 0.537109,0.976563 1.220703,1.855469 0.09766,0.683594 0.439453,1.318359 0.341797,0.634766 0.341797,1.416016 0,0.488281 -0.488281,0.927734 -0.488281,0.439454 -0.878907,0.634766 z m -12.5,2.539062 q 1.5625,-1.660156 2.246094,-3.710937 Q 40.429688,60.15625 40.087891,59.716797 39.746094,59.277344 39.257812,58.789062 38.476562,57.8125 37.207031,55.957031 35.9375,54.101562 35.253906,53.027344 C 34.960937,52.34375 34.594726,51.489258 34.375,50.976562 Q 33.886719,49.902344 33.349609,48.97461 32.8125,48.046875 32.324219,46.972656 32.128906,46.484375 31.933594,45.996093 31.738281,45.507812 31.445312,45.019531 31.054688,44.53125 30.664063,44.140625 30.273438,43.75 30.078125,42.96875 q -0.292969,-0.292969 -0.537109,-0.585938 -0.244141,-0.292968 -0.439454,-0.78125 -2.148437,2.929688 -3.662109,5.517578 -1.513672,2.587891 -3.173828,5.22461 -0.78125,1.171875 -1.5625,2.34375 -0.78125,1.171875 -1.464844,2.539062 -0.390625,0.78125 -1.074219,1.708985 -0.683593,0.927734 -1.367187,2.001953 -0.683594,0.976562 -1.269531,1.953125 -0.585938,0.976562 -0.683594,1.367187 1.269531,2.246094 2.441406,3.710938 1.171875,1.464844 2.246094,3.125 0.878906,1.855468 1.855469,3.417968 0.488281,0.78125 1.123047,1.5625 0.634765,0.78125 1.123046,1.660157 1.171876,1.269531 2.001954,2.734375 0.830078,1.464844 2.197265,2.636718 1.074219,-1.464843 1.953125,-3.076171 0.878906,-1.611329 1.855469,-3.271485 0.976563,-1.660156 1.855469,-3.222656 0.878906,-1.5625 1.5625,-3.417969 0.390625,-0.195312 0.585937,-0.390625 0.195313,-0.195312 0.390625,-0.390625 0.488282,-1.367187 1.220703,-2.490234 0.732422,-1.123047 1.220703,-2.490235 z m -6.054687,-6.445312 q 0.585937,1.074219 1.318359,2.099609 0.732422,1.025391 1.513672,2.001953 0.292969,0.195313 0.683594,0.439454 0.390625,0.24414 0.390625,0.732422 0,0.390624 -0.488281,0.878906 -0.488282,0.488281 -0.585938,1.074218 -0.488281,0.292969 -0.78125,0.683594 -0.292968,0.390625 -0.683594,0.878906 -0.585937,-0.195312 -0.976562,0 -0.390625,0.195313 -0.878906,0.195313 -1.074219,0.585937 -1.31836,0.830078 -0.24414,0.244141 -0.537109,0.537109 -0.195313,0.292969 -0.537109,0.585938 -0.341797,0.292969 -1.123047,0.488281 -0.878907,0.78125 -1.074219,0.878907 -0.390625,0 -0.634766,-0.146484 -0.24414,-0.146485 -0.537109,-0.244142 -0.390625,-0.292968 -1.318359,-1.416015 -0.927735,-1.123047 -1.904297,-2.392578 -0.976563,-1.367188 -1.708985,-2.539063 -0.732422,-1.171875 -0.732422,-1.660156 0.585938,-0.976562 0.78125,-1.220703 0.195313,-0.244141 0.683594,-0.244141 0.78125,-0.292968 1.074219,-0.683593 0.292969,-0.390625 0.488281,-0.683594 0.292969,-0.390625 0.683594,-0.634766 0.390625,-0.244141 1.171875,-0.537109 0.78125,-1.074219 1.074219,-1.269532 0.292968,-0.195312 0.78125,-0.195312 0.488281,-0.390625 0.537109,-1.025391 0.04883,-0.634765 0.830078,-0.537109 1.464844,0.78125 2.441407,1.757812 0.488281,0.390626 0.683593,0.781251 0.195313,0.390625 0.683594,0.585937 z"
       id="path_0_0" />
  </g>
</svg>
