<svg width="600" height="600" viewBox="0 0 600 600" fill="none" xmlns="http://www.w3.org/2000/svg">
<rect x="173.5" y="261.5" width="253" height="253" rx="52.5" fill="#D9D9D9" stroke="#A7A7A7" stroke-width="35"/>
<path d="M404.5 503.199C421.748 509 424.861 504.425 447.269 460.413C467.89 419.913 502.769 340.413 512.769 248.413C522.306 160.677 504 115.199 463.5 99.699C434 88.4089 397.3 97.9087 378.748 123.411C353.497 158.123 348.248 176.911 340 196.699C363 174.699 414.727 146.5 452.248 156.5C453.727 156.894 458.264 181.498 452.248 237C447.859 277.5 425.939 331.915 404.5 378.913C383.248 425.5 388.386 413.945 378.248 435C371.748 448.5 360.639 472.32 360.748 472.5C360.748 472.5 357.248 479.5 356.748 480.5L404.5 503.199Z" fill="#DAC369" stroke="#DAC369" stroke-width="14" stroke-linejoin="round"/>
<mask id="mask0_4001_46" style="mask-type:alpha" maskUnits="userSpaceOnUse" x="332" y="88" width="191" height="425">
<path d="M404.5 503.199C421.748 509 424.861 504.425 447.269 460.413C467.89 419.913 502.769 340.413 512.769 248.413C522.306 160.677 504 115.199 463.5 99.699C434 88.4089 397.3 97.9087 378.748 123.411C353.497 158.123 348.248 176.911 340 196.699C363 174.699 414.727 146.5 452.248 156.5C453.727 156.894 458.264 181.498 452.248 237C447.859 277.5 425.939 331.915 404.5 378.913C383.248 425.5 388.386 413.945 378.248 435C371.748 448.5 360.64 472.32 360.748 472.5C360.748 472.5 357.248 479.5 356.748 480.5L404.5 503.199Z" fill="#BFA64C" stroke="#DAC369" stroke-width="14" stroke-linejoin="round"/>
</mask>
<g mask="url(#mask0_4001_46)">
<path d="M423.748 182.5C421.248 169 423.248 109 402.748 89" stroke="url(#paint0_linear_4001_46)" stroke-width="50"/>
<rect x="387.009" y="325.633" width="126.364" height="145.614" transform="rotate(18.4686 387.009 325.633)" fill="url(#paint1_linear_4001_46)" stroke="#DAC369"/>
</g>
<path d="M195.248 503.199C178 509 174.887 504.425 152.479 460.413C131.859 419.913 96.979 340.413 86.979 248.413C77.4425 160.677 95.7483 115.199 136.248 99.699C165.748 88.4089 202.448 97.9087 221 123.411C246.252 158.123 251.5 176.911 259.748 196.699C236.748 174.699 185.021 146.5 147.5 156.5C146.021 156.894 141.485 181.498 147.5 237C151.889 277.5 173.809 331.915 195.248 378.913C216.5 425.5 211.362 413.945 221.5 435C228 448.5 239.109 472.32 239 472.5C239 472.5 242.5 479.5 243 480.5L195.248 503.199Z" fill="#DAC369" stroke="#DAC369" stroke-width="14" stroke-linejoin="round"/>
<mask id="mask1_4001_46" style="mask-type:alpha" maskUnits="userSpaceOnUse" x="77" y="88" width="190" height="425">
<path d="M195.248 503.199C178 509 174.887 504.425 152.479 460.413C131.859 419.913 96.979 340.413 86.979 248.413C77.4424 160.677 95.7483 115.199 136.248 99.699C165.748 88.4089 202.448 97.9087 221 123.411C246.252 158.123 251.5 176.911 259.748 196.699C236.748 174.699 185.021 146.5 147.5 156.5C146.021 156.894 141.485 181.498 147.5 237C151.889 277.5 173.809 331.915 195.248 378.913C216.5 425.5 211.362 413.945 221.5 435C228 448.5 239.109 472.32 239 472.5C239 472.5 242.5 479.5 243 480.5L195.248 503.199Z" fill="#BFA64C" stroke="#DAC369" stroke-width="14" stroke-linejoin="round"/>
</mask>
<g mask="url(#mask1_4001_46)">
<path d="M176 182.5C178.5 169 176.5 109 197 89" stroke="url(#paint2_linear_4001_46)" stroke-width="50"/>
<rect x="-0.315856" y="0.632641" width="126.364" height="145.614" transform="matrix(-0.948497 0.316785 0.316785 0.948497 212.239 325.133)" fill="url(#paint3_linear_4001_46)" stroke="#DAC369"/>
</g>
<path d="M156 464H444C444 501.555 413.555 532 376 532H224C186.445 532 156 501.555 156 464Z" fill="#B3974C"/>
<defs>
<linearGradient id="paint0_linear_4001_46" x1="409.248" y1="136" x2="446.248" y2="129" gradientUnits="userSpaceOnUse">
<stop stop-color="#DAC369"/>
<stop offset="0.797781" stop-color="#B3974C"/>
</linearGradient>
<linearGradient id="paint1_linear_4001_46" x1="450.375" y1="325" x2="450.375" y2="471.614" gradientUnits="userSpaceOnUse">
<stop stop-color="#DAC369"/>
<stop offset="0.730769" stop-color="#B3974C"/>
</linearGradient>
<linearGradient id="paint2_linear_4001_46" x1="190.5" y1="136" x2="153.5" y2="129" gradientUnits="userSpaceOnUse">
<stop stop-color="#DAC369"/>
<stop offset="0.797781" stop-color="#B3974C"/>
</linearGradient>
<linearGradient id="paint3_linear_4001_46" x1="63.6819" y1="0" x2="63.6819" y2="146.614" gradientUnits="userSpaceOnUse">
<stop stop-color="#DAC369"/>
<stop offset="0.730769" stop-color="#B3974C"/>
</linearGradient>
</defs>
</svg>
