<svg width="446" height="444" viewBox="0 0 446 444" fill="none" xmlns="http://www.w3.org/2000/svg">
<rect x="96.5" y="173.5" width="253" height="253" rx="52.5" fill="#D9D9D9" stroke="#A7A7A7" stroke-width="35"/>
<path d="M327.5 415.199C344.748 421 347.861 416.425 370.269 372.413C390.89 331.913 425.769 252.413 435.769 160.413C445.306 72.6774 427 27.1991 386.5 11.699C357 0.408885 320.3 9.90871 301.748 35.4113C276.497 70.1234 271.248 88.9113 263 108.699C286 86.699 337.727 58.5 375.248 68.5C376.727 68.8942 381.264 93.4982 375.248 149C370.859 189.5 348.939 243.915 327.5 290.913C306.248 337.5 311.386 325.945 301.248 347C294.748 360.5 283.639 384.32 283.748 384.5C283.748 384.5 280.248 391.5 279.748 392.5L327.5 415.199Z" fill="#DAC369" stroke="#DAC369" stroke-width="14" stroke-linejoin="round"/>
<mask id="mask0_4001_46" style="mask-type:alpha" maskUnits="userSpaceOnUse" x="255" y="0" width="191" height="425">
<path d="M327.5 415.199C344.748 421 347.861 416.425 370.269 372.413C390.89 331.913 425.769 252.413 435.769 160.413C445.306 72.6774 427 27.1991 386.5 11.699C357 0.408885 320.3 9.90871 301.748 35.4113C276.497 70.1234 271.248 88.9113 263 108.699C286 86.699 337.727 58.5 375.248 68.5C376.727 68.8942 381.264 93.4982 375.248 149C370.859 189.5 348.939 243.915 327.5 290.913C306.248 337.5 311.386 325.945 301.248 347C294.748 360.5 283.64 384.32 283.748 384.5C283.748 384.5 280.248 391.5 279.748 392.5L327.5 415.199Z" fill="#BFA64C" stroke="#DAC369" stroke-width="14" stroke-linejoin="round"/>
</mask>
<g mask="url(#mask0_4001_46)">
<path d="M346.748 94.5C344.248 81 346.248 21 325.748 1" stroke="url(#paint0_linear_4001_46)" stroke-width="50"/>
<rect x="310.009" y="237.633" width="126.364" height="145.614" transform="rotate(18.4686 310.009 237.633)" fill="url(#paint1_linear_4001_46)" stroke="#DAC369"/>
</g>
<path d="M118.248 415.199C101 421 97.8874 416.425 75.479 372.413C54.8588 331.913 19.979 252.413 9.97899 160.413C0.442472 72.6774 18.7483 27.1991 59.2483 11.699C88.7483 0.408885 125.448 9.90871 144 35.4113C169.252 70.1234 174.5 88.9113 182.748 108.699C159.748 86.699 108.021 58.5 70.5 68.5C69.021 68.8942 64.4846 93.4982 70.5 149C74.8895 189.5 96.809 243.915 118.248 290.913C139.5 337.5 134.362 325.945 144.5 347C151 360.5 162.109 384.32 162 384.5C162 384.5 165.5 391.5 166 392.5L118.248 415.199Z" fill="#DAC369" stroke="#DAC369" stroke-width="14" stroke-linejoin="round"/>
<mask id="mask1_4001_46" style="mask-type:alpha" maskUnits="userSpaceOnUse" x="0" y="0" width="190" height="425">
<path d="M118.248 415.199C101 421 97.8874 416.425 75.479 372.413C54.8588 331.913 19.979 252.413 9.97896 160.413C0.442442 72.6774 18.7483 27.1991 59.2483 11.699C88.7483 0.408885 125.448 9.90871 144 35.4113C169.252 70.1234 174.5 88.9113 182.748 108.699C159.748 86.699 108.021 58.5 70.5 68.5C69.021 68.8942 64.4846 93.4982 70.5 149C74.8895 189.5 96.809 243.915 118.248 290.913C139.5 337.5 134.362 325.945 144.5 347C151 360.5 162.109 384.32 162 384.5C162 384.5 165.5 391.5 166 392.5L118.248 415.199Z" fill="#BFA64C" stroke="#DAC369" stroke-width="14" stroke-linejoin="round"/>
</mask>
<g mask="url(#mask1_4001_46)">
<path d="M99 94.5C101.5 81 99.5 21 120 1" stroke="url(#paint2_linear_4001_46)" stroke-width="50"/>
<rect x="-0.315856" y="0.632641" width="126.364" height="145.614" transform="matrix(-0.948497 0.316785 0.316785 0.948497 135.239 237.133)" fill="url(#paint3_linear_4001_46)" stroke="#DAC369"/>
</g>
<path d="M79 376H367C367 413.555 336.555 444 299 444H147C109.445 444 79 413.555 79 376Z" fill="#B3974C"/>
<defs>
<linearGradient id="paint0_linear_4001_46" x1="332.248" y1="48" x2="369.248" y2="41" gradientUnits="userSpaceOnUse">
<stop stop-color="#DAC369"/>
<stop offset="0.797781" stop-color="#B3974C"/>
</linearGradient>
<linearGradient id="paint1_linear_4001_46" x1="373.375" y1="237" x2="373.375" y2="383.614" gradientUnits="userSpaceOnUse">
<stop stop-color="#DAC369"/>
<stop offset="0.730769" stop-color="#B3974C"/>
</linearGradient>
<linearGradient id="paint2_linear_4001_46" x1="113.5" y1="48" x2="76.5" y2="41" gradientUnits="userSpaceOnUse">
<stop stop-color="#DAC369"/>
<stop offset="0.797781" stop-color="#B3974C"/>
</linearGradient>
<linearGradient id="paint3_linear_4001_46" x1="63.6819" y1="0" x2="63.6819" y2="146.614" gradientUnits="userSpaceOnUse">
<stop stop-color="#DAC369"/>
<stop offset="0.730769" stop-color="#B3974C"/>
</linearGradient>
</defs>
</svg>
